<?xml version="1.0" encoding="iso-8859-1"?>
<!-- Generator: Adobe Illustrator 18.0.0, SVG Export Plug-In . SVG Version: 6.00 Build 0)  -->
<!DOCTYPE svg PUBLIC "-//W3C//DTD SVG 1.1//EN" "http://www.w3.org/Graphics/SVG/1.1/DTD/svg11.dtd">
<svg version="1.1" id="Capa_1" xmlns="http://www.w3.org/2000/svg" xmlns:xlink="http://www.w3.org/1999/xlink" x="0px" y="0px"
	 viewBox="0 0 347.969 347.969" style="enable-background:new 0 0 347.969 347.969;" xml:space="preserve">
<path d="M6.054,0v287.381h161.331l57.679,60.588l57.692-60.588h59.158V0H6.054z M244.995,204.064l-9.353,7.361
	c-0.025,0.016-0.049,0.029-0.071,0.045c-13.662,10.664-33.021,11.076-54.54,1.203c-18.37-8.418-36.96-23.805-52.347-43.328
	c-15.387-19.504-26.012-41.184-29.917-61.01c-4.522-22.951,0.241-41.496,13.407-52.357c0.092-0.072,9.622-7.6,9.622-7.6
	c4.307-3.396,10.542-2.642,13.938,1.65l24.277,30.803c3.395,4.301,2.652,10.541-1.65,13.926l-9.352,7.385
	c-4.305,3.395-10.224,20.684,8.509,44.478c18.746,23.76,37.247,21.826,41.557,18.412l9.351-7.361
	c4.311-3.389,10.548-2.662,13.943,1.65l24.273,30.783C250.036,194.416,249.299,200.648,244.995,204.064z"/>
<g>
</g>
<g>
</g>
<g>
</g>
<g>
</g>
<g>
</g>
<g>
</g>
<g>
</g>
<g>
</g>
<g>
</g>
<g>
</g>
<g>
</g>
<g>
</g>
<g>
</g>
<g>
</g>
<g>
</g>
</svg>
